<svg xmlns="http://www.w3.org/2000/svg" xmlns:xlink="http://www.w3.org/1999/xlink" width="500" zoomAndPan="magnify" viewBox="0 0 375 374.999991" height="500" preserveAspectRatio="xMidYMid meet" version="1.0"><defs><g/><clipPath id="8f75206257"><path d="M 7.363281 7.363281 L 367.636719 7.363281 L 367.636719 367.636719 L 7.363281 367.636719 Z M 7.363281 7.363281 " clip-rule="nonzero"/></clipPath><clipPath id="34c53f7b2d"><path d="M 187.5 7.363281 C 88.011719 7.363281 7.363281 88.011719 7.363281 187.5 C 7.363281 286.988281 88.011719 367.636719 187.5 367.636719 C 286.988281 367.636719 367.636719 286.988281 367.636719 187.5 C 367.636719 88.011719 286.988281 7.363281 187.5 7.363281 Z M 187.5 7.363281 " clip-rule="nonzero"/></clipPath><clipPath id="84c93e0da6"><path d="M 7.363281 7.363281 L 367.363281 7.363281 L 367.363281 367.363281 L 7.363281 367.363281 Z M 7.363281 7.363281 " clip-rule="nonzero"/></clipPath><clipPath id="270f4c85c1"><path d="M 187.496094 7.363281 C 88.011719 7.363281 7.363281 88.011719 7.363281 187.496094 C 7.363281 286.980469 88.011719 367.632812 187.496094 367.632812 C 286.980469 367.632812 367.632812 286.980469 367.632812 187.496094 C 367.632812 88.011719 286.980469 7.363281 187.496094 7.363281 Z M 187.496094 7.363281 " clip-rule="nonzero"/></clipPath></defs><g clip-path="url(#8f75206257)"><g clip-path="url(#34c53f7b2d)"><path fill="#000000" d="M 7.363281 7.363281 L 367.636719 7.363281 L 367.636719 367.636719 L 7.363281 367.636719 Z M 7.363281 7.363281 " fill-opacity="1" fill-rule="nonzero"/></g></g><g clip-path="url(#84c93e0da6)"><g clip-path="url(#270f4c85c1)"><path stroke-linecap="butt" transform="matrix(0.75, 0, 0, 0.75, 7.361469, 7.361465)" fill="none" stroke-linejoin="miter" d="M 240.179515 0.00242226 C 107.533673 0.00242226 0.00241626 107.533679 0.00241626 240.179521 C 0.00241626 372.825363 107.533673 480.361829 240.179515 480.361829 C 372.825357 480.361829 480.361823 372.825363 480.361823 240.179521 C 480.361823 107.533679 372.825357 0.00242226 240.179515 0.00242226 Z M 240.179515 0.00242226 " stroke="#ffffff" stroke-width="8" stroke-opacity="1" stroke-miterlimit="4"/></g></g><g fill="#ffffff" fill-opacity="1"><g transform="translate(118.959957, 487.871128)"><g><path d="M 58.140625 -395.734375 C 57.421875 -395.378906 57.0625 -396.710938 57.0625 -399.734375 C 57.0625 -402.753906 57.0625 -404.796875 57.0625 -405.859375 C 59.550781 -410.835938 62.835938 -413.945312 66.921875 -415.1875 C 71.015625 -416.4375 75.019531 -415.109375 78.9375 -411.203125 C 81.78125 -407.640625 82.753906 -404.257812 81.859375 -401.0625 C 80.972656 -397.863281 79.109375 -395.019531 76.265625 -392.53125 C 71.992188 -388.976562 67.550781 -388.269531 62.9375 -390.40625 C 62.21875 -390.40625 61.414062 -391.113281 60.53125 -392.53125 C 59.644531 -393.957031 58.847656 -395.023438 58.140625 -395.734375 Z M 145.0625 -326.9375 C 145.414062 -328 146.570312 -329.507812 148.53125 -331.46875 C 150.488281 -333.425781 152.085938 -334.757812 153.328125 -335.46875 C 154.578125 -336.175781 154.3125 -334.929688 152.53125 -331.734375 C 150.394531 -328.890625 148.796875 -326.046875 147.734375 -323.203125 C 150.578125 -326.046875 151.195312 -326.132812 149.59375 -323.46875 C 148 -320.800781 145.867188 -317.773438 143.203125 -314.390625 C 140.535156 -311.015625 139.023438 -309.148438 138.671875 -308.796875 C 128.710938 -296.710938 119.109375 -286.132812 109.859375 -277.0625 C 100.617188 -268 90.3125 -258.3125 78.9375 -248 C 72.882812 -243.019531 69.503906 -239.640625 68.796875 -237.859375 C 68.085938 -236.085938 72.535156 -239.289062 82.140625 -247.46875 C 89.597656 -253.863281 95.367188 -258.925781 99.453125 -262.65625 C 103.546875 -266.394531 107.28125 -269.953125 110.65625 -273.328125 C 114.039062 -276.710938 118.222656 -280.890625 123.203125 -285.859375 C 127.828125 -290.484375 131.828125 -294.75 135.203125 -298.65625 C 138.578125 -302.570312 140.265625 -304.707031 140.265625 -305.0625 C 140.972656 -306.84375 142.035156 -308.707031 143.453125 -310.65625 C 144.878906 -312.613281 146.128906 -314.484375 147.203125 -316.265625 C 150.046875 -320.179688 151.289062 -321.25 150.9375 -319.46875 C 150.582031 -317.6875 149.691406 -315.910156 148.265625 -314.140625 C 146.847656 -312.710938 145.601562 -311.109375 144.53125 -309.328125 C 143.46875 -307.554688 142.9375 -306.3125 142.9375 -305.59375 C 142.9375 -303.820312 142.046875 -302.398438 140.265625 -301.328125 C 140.265625 -301.328125 139.910156 -300.617188 139.203125 -299.203125 C 138.128906 -298.128906 137.59375 -297.328125 137.59375 -296.796875 C 137.59375 -296.265625 136.882812 -295.46875 135.46875 -294.40625 C 134.039062 -293.332031 133.0625 -291.992188 132.53125 -290.390625 C 132 -288.796875 130.84375 -287.644531 129.0625 -286.9375 C 129.0625 -286.9375 128.972656 -286.847656 128.796875 -286.671875 C 128.617188 -286.492188 128.53125 -286.046875 128.53125 -285.328125 C 128.53125 -284.617188 128.351562 -284.175781 128 -284 C 127.644531 -283.820312 127.46875 -283.378906 127.46875 -282.671875 C 126.757812 -281.242188 125.515625 -279.640625 123.734375 -277.859375 C 121.953125 -276.085938 120.53125 -275.023438 119.46875 -274.671875 C 118.394531 -275.023438 118.570312 -275.910156 120 -277.328125 C 121.0625 -278.046875 121.414062 -278.492188 121.0625 -278.671875 C 120.707031 -278.847656 120.175781 -278.578125 119.46875 -277.859375 C 117.332031 -275.734375 116.351562 -274.582031 116.53125 -274.40625 C 116.707031 -274.226562 117.238281 -274.140625 118.125 -274.140625 C 119.019531 -274.140625 119.019531 -273.515625 118.125 -272.265625 C 117.238281 -271.023438 114.664062 -268.269531 110.40625 -264 C 109.332031 -263.289062 108.796875 -262.753906 108.796875 -262.390625 C 108.796875 -262.035156 108.085938 -261.859375 106.671875 -261.859375 C 105.953125 -262.222656 105.503906 -262.3125 105.328125 -262.125 C 105.148438 -261.945312 105.238281 -261.679688 105.59375 -261.328125 C 106.3125 -260.972656 105.957031 -260.171875 104.53125 -258.921875 C 103.113281 -257.679688 102.40625 -257.597656 102.40625 -258.671875 C 102.40625 -259.023438 101.957031 -259.378906 101.0625 -259.734375 C 100.175781 -260.085938 100.085938 -259.910156 100.796875 -259.203125 C 100.796875 -258.847656 100.796875 -258.582031 100.796875 -258.40625 C 100.796875 -258.226562 100.796875 -258.140625 100.796875 -258.140625 C 100.441406 -257.773438 100.707031 -257.503906 101.59375 -257.328125 C 102.488281 -257.148438 102.578125 -256.707031 101.859375 -256 C 100.441406 -254.21875 100.976562 -254.394531 103.46875 -256.53125 C 105.957031 -258.664062 108.976562 -261.421875 112.53125 -264.796875 C 116.082031 -268.171875 118.394531 -270.394531 119.46875 -271.46875 C 119.113281 -271.46875 119.46875 -272 120.53125 -273.0625 C 121.601562 -274.132812 122.140625 -274.3125 122.140625 -273.59375 C 122.140625 -272.882812 121.78125 -272.53125 121.0625 -272.53125 C 120.707031 -272.175781 120.53125 -271.820312 120.53125 -271.46875 C 120.53125 -271.113281 120.175781 -270.578125 119.46875 -269.859375 C 118.757812 -269.148438 117.78125 -267.992188 116.53125 -266.390625 C 115.289062 -264.796875 114.671875 -263.820312 114.671875 -263.46875 C 113.953125 -261.6875 111.546875 -258.835938 107.453125 -254.921875 C 103.367188 -251.015625 99.015625 -247.015625 94.390625 -242.921875 C 89.773438 -238.835938 86.222656 -235.550781 83.734375 -233.0625 C 76.972656 -226.664062 69.0625 -220.441406 60 -214.390625 C 50.9375 -208.347656 41.425781 -206.039062 31.46875 -207.46875 C 26.488281 -208.175781 23.195312 -208.796875 21.59375 -209.328125 C 20 -209.867188 17.601562 -211.378906 14.40625 -213.859375 C 11.914062 -216.710938 8.890625 -220.003906 5.328125 -223.734375 C 1.773438 -227.460938 -0.351562 -230.75 -1.0625 -233.59375 C -4.625 -243.90625 -5.425781 -255.816406 -3.46875 -269.328125 C -1.507812 -282.835938 0.890625 -294.570312 3.734375 -304.53125 C 4.441406 -306.3125 3.726562 -306.664062 1.59375 -305.59375 C -1.601562 -304.882812 -3.023438 -305.597656 -2.671875 -307.734375 C -2.316406 -309.867188 -1.25 -312.445312 0.53125 -315.46875 C 2.3125 -318.488281 3.378906 -320.53125 3.734375 -321.59375 C 5.515625 -325.507812 8.09375 -329.773438 11.46875 -334.390625 C 14.84375 -339.015625 17.421875 -343.640625 19.203125 -348.265625 C 22.046875 -353.953125 24 -357.6875 25.0625 -359.46875 C 26.132812 -361.25 28.976562 -363.5625 33.59375 -366.40625 C 34.664062 -367.113281 36.800781 -367.109375 40 -366.390625 C 43.195312 -365.679688 45.507812 -364.972656 46.9375 -364.265625 C 48.707031 -364.265625 50.394531 -363.195312 52 -361.0625 C 53.601562 -358.925781 53.515625 -356.972656 51.734375 -355.203125 C 51.378906 -354.847656 51.113281 -354.398438 50.9375 -353.859375 C 50.757812 -353.328125 50.492188 -352.707031 50.140625 -352 C 44.804688 -344.882812 40.535156 -336.882812 37.328125 -328 C 34.128906 -319.113281 31.109375 -309.867188 28.265625 -300.265625 C 25.773438 -291.023438 23.460938 -282.3125 21.328125 -274.125 C 19.203125 -265.945312 18.140625 -256.523438 18.140625 -245.859375 C 18.140625 -237.328125 18.847656 -230.753906 20.265625 -226.140625 C 20.972656 -222.222656 23.28125 -220.707031 27.1875 -221.59375 C 31.101562 -222.488281 34.304688 -223.289062 36.796875 -224 C 43.554688 -226.84375 50.664062 -231.109375 58.125 -236.796875 C 65.59375 -242.484375 72.972656 -248.523438 80.265625 -254.921875 C 87.554688 -261.328125 93.867188 -267.019531 99.203125 -272 C 100.265625 -272.707031 100.53125 -272.707031 100 -272 C 99.46875 -271.289062 99.023438 -270.9375 98.671875 -270.9375 C 98.316406 -270.21875 97.515625 -269.238281 96.265625 -268 C 95.023438 -266.757812 94.046875 -265.78125 93.328125 -265.0625 C 88.347656 -260.082031 84.96875 -256.96875 83.1875 -255.71875 C 81.414062 -254.476562 78.929688 -251.90625 75.734375 -248 C 79.640625 -250.84375 84.257812 -254.84375 89.59375 -260 C 94.925781 -265.15625 99.550781 -269.6875 103.46875 -273.59375 C 104.175781 -274.664062 104.351562 -275.203125 104 -275.203125 C 103.289062 -274.847656 103.023438 -274.9375 103.203125 -275.46875 C 103.378906 -276 103.644531 -276.265625 104 -276.265625 C 104.707031 -276.617188 105.414062 -277.238281 106.125 -278.125 C 106.84375 -279.019531 107.554688 -279.644531 108.265625 -280 C 109.328125 -280.351562 109.679688 -280.882812 109.328125 -281.59375 C 109.328125 -281.957031 109.6875 -281.957031 110.40625 -281.59375 C 111.113281 -281.59375 111.289062 -281.773438 110.9375 -282.140625 C 110.9375 -282.847656 111.113281 -283.113281 111.46875 -282.9375 C 111.820312 -282.757812 112.175781 -283.023438 112.53125 -283.734375 C 114.3125 -285.515625 116.359375 -287.554688 118.671875 -289.859375 C 120.984375 -292.171875 122.847656 -294.21875 124.265625 -296 C 124.972656 -296.351562 125.945312 -297.328125 127.1875 -298.921875 C 128.4375 -300.523438 129.238281 -301.328125 129.59375 -301.328125 C 129.957031 -301.328125 130.492188 -302.21875 131.203125 -304 C 131.910156 -305.78125 132.707031 -306.582031 133.59375 -306.40625 C 134.488281 -306.226562 135.113281 -306.847656 135.46875 -308.265625 C 136.53125 -310.046875 136.53125 -310.578125 135.46875 -309.859375 C 134.394531 -309.503906 135.285156 -311.109375 138.140625 -314.671875 C 139.910156 -316.796875 141.148438 -318.835938 141.859375 -320.796875 C 142.578125 -322.753906 143.644531 -324.800781 145.0625 -326.9375 Z M 126.9375 -285.328125 C 126.21875 -284.265625 126.300781 -284 127.1875 -284.53125 C 128.082031 -285.0625 128.351562 -285.503906 128 -285.859375 C 128 -285.859375 127.910156 -285.769531 127.734375 -285.59375 C 127.554688 -285.414062 127.289062 -285.328125 126.9375 -285.328125 Z M 110.40625 -268.796875 C 110.40625 -268.441406 110.757812 -268.441406 111.46875 -268.796875 C 112.175781 -269.148438 112.53125 -269.503906 112.53125 -269.859375 C 112.53125 -270.222656 113.066406 -270.757812 114.140625 -271.46875 C 115.203125 -272.175781 115.734375 -272.882812 115.734375 -273.59375 C 115.734375 -274.3125 115.378906 -274.3125 114.671875 -273.59375 C 114.316406 -273.238281 113.691406 -272.523438 112.796875 -271.453125 C 111.910156 -270.390625 111.113281 -269.503906 110.40625 -268.796875 Z M 107.734375 -265.59375 C 107.734375 -265.59375 107.820312 -265.59375 108 -265.59375 C 108.175781 -265.59375 108.441406 -265.773438 108.796875 -266.140625 C 110.222656 -267.203125 110.488281 -267.820312 109.59375 -268 C 108.707031 -268.175781 108.085938 -267.375 107.734375 -265.59375 Z M 103.46875 -262.40625 C 103.113281 -262.039062 103.113281 -261.859375 103.46875 -261.859375 C 103.820312 -261.859375 104.175781 -262.039062 104.53125 -262.40625 C 104.53125 -262.757812 104.972656 -262.9375 105.859375 -262.9375 C 106.753906 -262.9375 107.023438 -263.113281 106.671875 -263.46875 C 106.316406 -263.820312 105.691406 -263.910156 104.796875 -263.734375 C 103.910156 -263.554688 103.46875 -263.113281 103.46875 -262.40625 Z M 98.140625 -256.53125 C 98.140625 -256.53125 97.957031 -256.441406 97.59375 -256.265625 C 97.238281 -256.085938 97.0625 -255.820312 97.0625 -255.46875 C 97.0625 -255.113281 97.238281 -255.113281 97.59375 -255.46875 C 97.957031 -255.820312 98.140625 -256.175781 98.140625 -256.53125 Z M 96.53125 -250.140625 C 96.53125 -250.847656 96.175781 -251.023438 95.46875 -250.671875 C 94.757812 -249.953125 94.757812 -249.59375 95.46875 -249.59375 C 96.175781 -249.59375 96.53125 -249.773438 96.53125 -250.140625 Z M 94.9375 -254.9375 C 94.582031 -254.9375 94.40625 -254.757812 94.40625 -254.40625 C 94.40625 -254.039062 94.757812 -253.945312 95.46875 -254.125 C 96.175781 -254.3125 96 -254.582031 94.9375 -254.9375 Z M 88.53125 -248.53125 C 88.175781 -248.175781 88.53125 -248.265625 89.59375 -248.796875 C 90.664062 -249.328125 91.203125 -250.304688 91.203125 -251.734375 C 91.203125 -252.085938 90.84375 -251.640625 90.125 -250.390625 C 89.414062 -249.148438 88.882812 -248.53125 88.53125 -248.53125 Z M 81.0625 -243.203125 C 80.707031 -242.847656 80.972656 -242.671875 81.859375 -242.671875 C 82.753906 -242.671875 82.847656 -242.847656 82.140625 -243.203125 C 81.773438 -243.203125 81.59375 -243.203125 81.59375 -243.203125 C 81.59375 -243.203125 81.414062 -243.203125 81.0625 -243.203125 Z M 63.46875 -238.9375 C 62.757812 -237.507812 63.203125 -237.328125 64.796875 -238.390625 C 66.398438 -239.460938 68.085938 -240.796875 69.859375 -242.390625 C 71.640625 -243.992188 72.351562 -244.796875 72 -244.796875 C 71.644531 -244.796875 70.222656 -243.726562 67.734375 -241.59375 C 65.242188 -239.46875 63.820312 -238.582031 63.46875 -238.9375 Z M 73.0625 -245.859375 C 72.351562 -245.503906 72.265625 -245.238281 72.796875 -245.0625 C 73.328125 -244.882812 73.59375 -244.972656 73.59375 -245.328125 C 73.59375 -245.679688 73.503906 -245.859375 73.328125 -245.859375 C 73.148438 -245.859375 73.0625 -245.859375 73.0625 -245.859375 Z M 146.671875 -321.0625 C 147.023438 -321.0625 147.203125 -321.238281 147.203125 -321.59375 C 147.203125 -321.957031 147.023438 -322.140625 146.671875 -322.140625 C 145.953125 -321.773438 145.148438 -320.878906 144.265625 -319.453125 C 143.378906 -318.035156 142.578125 -316.972656 141.859375 -316.265625 C 139.378906 -313.773438 137.78125 -311.992188 137.0625 -310.921875 C 136.351562 -309.859375 137.597656 -310.570312 140.796875 -313.0625 C 142.578125 -314.488281 143.734375 -315.910156 144.265625 -317.328125 C 144.796875 -318.753906 145.597656 -320 146.671875 -321.0625 Z M 146.671875 -321.0625 "/></g></g></g></svg>